<svg width="500" height="500" viewBox="0 0 500 500" fill="none" xmlns="http://www.w3.org/2000/svg">
<g clip-path="url(#clip0_78_85)">
<g clip-path="url(#clip1_78_85)">
<path d="M131.777 101.411H193.453L163.156 247.483H164.238C174.698 233.417 188.223 222.056 204.814 213.4C221.405 204.743 238.537 200.415 256.21 200.415C284.342 200.415 304.9 207.088 317.885 220.433C331.23 233.778 337.902 251.811 337.902 274.534C337.902 279.583 337.722 285.354 337.361 291.846C337 298.338 336.279 304.109 335.197 309.158L297.867 487.691H236.192L271.899 315.109C272.981 310.421 273.883 305.912 274.604 301.584C275.686 297.256 276.227 293.108 276.227 289.141C276.227 286.977 276.047 283.731 275.686 279.403C275.686 274.714 274.424 270.206 271.899 265.878C269.374 261.189 265.046 257.221 258.915 253.975C253.144 250.729 244.668 249.106 233.487 249.106C221.224 249.106 210.224 251.811 200.486 257.221C191.108 262.271 182.632 268.583 175.058 276.157C167.845 283.37 161.533 292.387 156.123 303.207C151.073 313.667 147.286 324.667 144.762 336.209L113.383 487.691H51.7081L131.777 101.411Z" fill="#FF5500"/>
<path d="M281.087 59.9386H298.333L329.951 252.932H330.773L438.767 59.9386H457.245L336.932 271H318.043L281.087 59.9386Z" fill="#FF5500"/>
<path d="M292.5 17.5L298.5 60.5L281.5 62.5L274.5 17.5H292.5Z" fill="#FF5500"/>
</g>
<rect x="12.7" y="13.9915" width="474.6" height="474.6" rx="237.3" stroke="#FF5500" stroke-width="15.4"/>
<path d="M144.301 34.2917L214.3 9.79147L166.248 232.617L107.106 220.106L144.301 34.2917Z" fill="#FF5500"/>
</g>
<defs>
<clipPath id="clip0_78_85">
<rect width="500" height="500" fill="white"/>
</clipPath>
<clipPath id="clip1_78_85">
<rect x="5" y="6.2915" width="490" height="490" rx="245" fill="white"/>
</clipPath>
</defs>
</svg>
